<svg width="41" height="41" viewBox="0 0 41 41" fill="none" xmlns="http://www.w3.org/2000/svg">
<rect x="0.5" y="0.5" width="40" height="40" rx="6" fill="#579189"/>
<rect x="0.5" y="0.5" width="40" height="40" rx="6" fill="white" fill-opacity="0.8"/>
<path d="M11.5 29.5H29.5" stroke="#579189" stroke-width="1.5" stroke-linecap="round" stroke-linejoin="round"/>
<path d="M11.5 29.5H29.5" stroke="white" stroke-opacity="0.2" stroke-width="1.5" stroke-linecap="round" stroke-linejoin="round"/>
<path d="M17.5 16.5H18.5" stroke="#579189" stroke-width="1.5" stroke-linecap="round" stroke-linejoin="round"/>
<path d="M17.5 16.5H18.5" stroke="white" stroke-opacity="0.2" stroke-width="1.5" stroke-linecap="round" stroke-linejoin="round"/>
<path d="M17.5 20.5H18.5" stroke="#579189" stroke-width="1.5" stroke-linecap="round" stroke-linejoin="round"/>
<path d="M17.5 20.5H18.5" stroke="white" stroke-opacity="0.2" stroke-width="1.5" stroke-linecap="round" stroke-linejoin="round"/>
<path d="M17.5 24.5H18.5" stroke="#579189" stroke-width="1.5" stroke-linecap="round" stroke-linejoin="round"/>
<path d="M17.5 24.5H18.5" stroke="white" stroke-opacity="0.2" stroke-width="1.5" stroke-linecap="round" stroke-linejoin="round"/>
<path d="M22.5 16.5H23.5" stroke="#579189" stroke-width="1.5" stroke-linecap="round" stroke-linejoin="round"/>
<path d="M22.5 16.5H23.5" stroke="white" stroke-opacity="0.2" stroke-width="1.5" stroke-linecap="round" stroke-linejoin="round"/>
<path d="M22.5 20.5H23.5" stroke="#579189" stroke-width="1.5" stroke-linecap="round" stroke-linejoin="round"/>
<path d="M22.5 20.5H23.5" stroke="white" stroke-opacity="0.2" stroke-width="1.5" stroke-linecap="round" stroke-linejoin="round"/>
<path d="M22.5 24.5H23.5" stroke="#579189" stroke-width="1.5" stroke-linecap="round" stroke-linejoin="round"/>
<path d="M22.5 24.5H23.5" stroke="white" stroke-opacity="0.2" stroke-width="1.5" stroke-linecap="round" stroke-linejoin="round"/>
<path d="M13.5 29.5V13.5C13.5 12.3954 14.3954 11.5 15.5 11.5H25.5C26.6046 11.5 27.5 12.3954 27.5 13.5V29.5" stroke="#579189" stroke-width="1.5" stroke-linecap="round" stroke-linejoin="round"/>
<path d="M13.5 29.5V13.5C13.5 12.3954 14.3954 11.5 15.5 11.5H25.5C26.6046 11.5 27.5 12.3954 27.5 13.5V29.5" stroke="white" stroke-opacity="0.2" stroke-width="1.5" stroke-linecap="round" stroke-linejoin="round"/>
</svg>
