<svg width="49" height="49" viewBox="0 0 49 49" fill="none" xmlns="http://www.w3.org/2000/svg">
<g filter="url(#filter0_d_24_115)">
<rect x="4.5" y="2.5" width="40" height="40" rx="6" fill="#579189" shape-rendering="crispEdges"/>
<rect x="4.5" y="2.5" width="40" height="40" rx="6" fill="white" fill-opacity="0.2" shape-rendering="crispEdges"/>
<path d="M15.5 31.5H33.5" stroke="#579189" stroke-width="1.5" stroke-linecap="round" stroke-linejoin="round"/>
<path d="M15.5 31.5H33.5" stroke="white" stroke-opacity="0.8" stroke-width="1.5" stroke-linecap="round" stroke-linejoin="round"/>
<path d="M21.5 18.5H22.5" stroke="#579189" stroke-width="1.5" stroke-linecap="round" stroke-linejoin="round"/>
<path d="M21.5 18.5H22.5" stroke="white" stroke-opacity="0.8" stroke-width="1.5" stroke-linecap="round" stroke-linejoin="round"/>
<path d="M21.5 22.5H22.5" stroke="#579189" stroke-width="1.5" stroke-linecap="round" stroke-linejoin="round"/>
<path d="M21.5 22.5H22.5" stroke="white" stroke-opacity="0.8" stroke-width="1.5" stroke-linecap="round" stroke-linejoin="round"/>
<path d="M21.5 26.5H22.5" stroke="#579189" stroke-width="1.5" stroke-linecap="round" stroke-linejoin="round"/>
<path d="M21.5 26.5H22.5" stroke="white" stroke-opacity="0.8" stroke-width="1.5" stroke-linecap="round" stroke-linejoin="round"/>
<path d="M26.5 18.5H27.5" stroke="#579189" stroke-width="1.5" stroke-linecap="round" stroke-linejoin="round"/>
<path d="M26.5 18.5H27.5" stroke="white" stroke-opacity="0.8" stroke-width="1.5" stroke-linecap="round" stroke-linejoin="round"/>
<path d="M26.5 22.5H27.5" stroke="#579189" stroke-width="1.5" stroke-linecap="round" stroke-linejoin="round"/>
<path d="M26.5 22.5H27.5" stroke="white" stroke-opacity="0.8" stroke-width="1.5" stroke-linecap="round" stroke-linejoin="round"/>
<path d="M26.5 26.5H27.5" stroke="#579189" stroke-width="1.5" stroke-linecap="round" stroke-linejoin="round"/>
<path d="M26.5 26.5H27.5" stroke="white" stroke-opacity="0.8" stroke-width="1.5" stroke-linecap="round" stroke-linejoin="round"/>
<path d="M17.5 31.5V15.5C17.5 14.3954 18.3954 13.5 19.5 13.5H29.5C30.6046 13.5 31.5 14.3954 31.5 15.5V31.5" stroke="#579189" stroke-width="1.5" stroke-linecap="round" stroke-linejoin="round"/>
<path d="M17.5 31.5V15.5C17.5 14.3954 18.3954 13.5 19.5 13.5H29.5C30.6046 13.5 31.5 14.3954 31.5 15.5V31.5" stroke="white" stroke-opacity="0.8" stroke-width="1.5" stroke-linecap="round" stroke-linejoin="round"/>
</g>
<defs>
<filter id="filter0_d_24_115" x="0.5" y="0.5" width="48" height="48" filterUnits="userSpaceOnUse" color-interpolation-filters="sRGB">
<feFlood flood-opacity="0" result="BackgroundImageFix"/>
<feColorMatrix in="SourceAlpha" type="matrix" values="0 0 0 0 0 0 0 0 0 0 0 0 0 0 0 0 0 0 127 0" result="hardAlpha"/>
<feOffset dy="2"/>
<feGaussianBlur stdDeviation="2"/>
<feComposite in2="hardAlpha" operator="out"/>
<feColorMatrix type="matrix" values="0 0 0 0 0.647059 0 0 0 0 0.639216 0 0 0 0 0.682353 0 0 0 0.3 0"/>
<feBlend mode="normal" in2="BackgroundImageFix" result="effect1_dropShadow_24_115"/>
<feBlend mode="normal" in="SourceGraphic" in2="effect1_dropShadow_24_115" result="shape"/>
</filter>
</defs>
</svg>
