<svg width="49" height="48" viewBox="0 0 49 48" fill="none" xmlns="http://www.w3.org/2000/svg">
<g filter="url(#filter0_d_24_18717)">
<rect x="4.5" y="2" width="40" height="40" rx="6" fill="#579189" shape-rendering="crispEdges"/>
<rect x="4.5" y="2" width="40" height="40" rx="6" fill="white" fill-opacity="0.2" shape-rendering="crispEdges"/>
<rect x="15.5" y="17" width="18" height="13" rx="2" stroke="#579189" stroke-width="1.5" stroke-linecap="round" stroke-linejoin="round"/>
<rect x="15.5" y="17" width="18" height="13" rx="2" stroke="white" stroke-opacity="0.8" stroke-width="1.5" stroke-linecap="round" stroke-linejoin="round"/>
<path d="M20.5 17V15C20.5 13.8954 21.3954 13 22.5 13H26.5C27.6046 13 28.5 13.8954 28.5 15V17" stroke="#579189" stroke-width="1.5" stroke-linecap="round" stroke-linejoin="round"/>
<path d="M20.5 17V15C20.5 13.8954 21.3954 13 22.5 13H26.5C27.6046 13 28.5 13.8954 28.5 15V17" stroke="white" stroke-opacity="0.8" stroke-width="1.5" stroke-linecap="round" stroke-linejoin="round"/>
<path d="M24.5 22V22.01" stroke="#579189" stroke-width="1.5" stroke-linecap="round" stroke-linejoin="round"/>
<path d="M24.5 22V22.01" stroke="white" stroke-opacity="0.8" stroke-width="1.5" stroke-linecap="round" stroke-linejoin="round"/>
<path d="M15.5 23C21.161 25.8526 27.839 25.8526 33.5 23" stroke="#579189" stroke-width="1.5" stroke-linecap="round" stroke-linejoin="round"/>
<path d="M15.5 23C21.161 25.8526 27.839 25.8526 33.5 23" stroke="white" stroke-opacity="0.8" stroke-width="1.5" stroke-linecap="round" stroke-linejoin="round"/>
</g>
<defs>
<filter id="filter0_d_24_18717" x="0.5" y="0" width="48" height="48" filterUnits="userSpaceOnUse" color-interpolation-filters="sRGB">
<feFlood flood-opacity="0" result="BackgroundImageFix"/>
<feColorMatrix in="SourceAlpha" type="matrix" values="0 0 0 0 0 0 0 0 0 0 0 0 0 0 0 0 0 0 127 0" result="hardAlpha"/>
<feOffset dy="2"/>
<feGaussianBlur stdDeviation="2"/>
<feComposite in2="hardAlpha" operator="out"/>
<feColorMatrix type="matrix" values="0 0 0 0 0.647059 0 0 0 0 0.639216 0 0 0 0 0.682353 0 0 0 0.3 0"/>
<feBlend mode="normal" in2="BackgroundImageFix" result="effect1_dropShadow_24_18717"/>
<feBlend mode="normal" in="SourceGraphic" in2="effect1_dropShadow_24_18717" result="shape"/>
</filter>
</defs>
</svg>
