<svg width="41" height="41" viewBox="0 0 41 41" fill="none" xmlns="http://www.w3.org/2000/svg">
<rect x="0.5" y="0.5" width="40" height="40" rx="6" fill="#579189"/>
<rect x="0.5" y="0.5" width="40" height="40" rx="6" fill="white" fill-opacity="0.8"/>
<rect x="11.5" y="15.5" width="18" height="13" rx="2" stroke="#579189" stroke-width="1.5" stroke-linecap="round" stroke-linejoin="round"/>
<rect x="11.5" y="15.5" width="18" height="13" rx="2" stroke="white" stroke-opacity="0.2" stroke-width="1.5" stroke-linecap="round" stroke-linejoin="round"/>
<path d="M16.5 15.5V13.5C16.5 12.3954 17.3954 11.5 18.5 11.5H22.5C23.6046 11.5 24.5 12.3954 24.5 13.5V15.5" stroke="#579189" stroke-width="1.5" stroke-linecap="round" stroke-linejoin="round"/>
<path d="M16.5 15.5V13.5C16.5 12.3954 17.3954 11.5 18.5 11.5H22.5C23.6046 11.5 24.5 12.3954 24.5 13.5V15.5" stroke="white" stroke-opacity="0.2" stroke-width="1.5" stroke-linecap="round" stroke-linejoin="round"/>
<path d="M20.5 20.5V20.51" stroke="#579189" stroke-width="1.5" stroke-linecap="round" stroke-linejoin="round"/>
<path d="M20.5 20.5V20.51" stroke="white" stroke-opacity="0.2" stroke-width="1.5" stroke-linecap="round" stroke-linejoin="round"/>
<path d="M11.5 21.5C17.161 24.3526 23.839 24.3526 29.5 21.5" stroke="#579189" stroke-width="1.5" stroke-linecap="round" stroke-linejoin="round"/>
<path d="M11.5 21.5C17.161 24.3526 23.839 24.3526 29.5 21.5" stroke="white" stroke-opacity="0.2" stroke-width="1.5" stroke-linecap="round" stroke-linejoin="round"/>
</svg>
